<svg xmlns="http://www.w3.org/2000/svg" viewBox="0 0 420 48" role="img" aria-label="Stanford University">
  <svg x="0" y="3" width="40" height="42" viewBox="32 2 98 112" preserveAspectRatio="xMidYMid meet">
    <path fill="#8c1515" d="m35.872 1.1236-34.558 33.832v90.907l30.041 30.665h13.776c-0.33541 0.92261-0.77516 2.3452 0.18119 3.7375 1.0401 1.5433 2.835 1.5433 3.5228 1.5433 0.80522 0 1.9291-0.10059 3.6571-0.33551h0.02027s0.72132 0.64079-1.4762 1.3621c-1.8117 0.63746-3.3919 1.6909-3.912 3.5025-0.03436 0.13399-0.04703 0.27196-0.08053 0.38918h-45.716l-0.013433 46.465 34.558 33.953h90.887l34.558-33.905v-87.077l-30.047-30.618h-25.478c-0.0172 0-0.0403-0.0134-0.0403-0.0134-1.1239-0.67099-2.2781-1.3789-3.3349-2.0667l-0.38917-0.24828-0.0671-0.04026c-0.57036-0.35214-1.1709-0.78508-1.8251-1.3554-0.57036-0.45294-1.0434-0.90584-1.3957-1.3085l-0.10066-0.10066c-0.67099-0.70459-1.2581-1.3789-1.7111-1.966 3.9756 1.1407 8.3071 1.4292 10.387 1.4963h0.24828c0.13399 0 0.27196 0.02027 0.38918 0.02027l0.18116 0.0134c0.50323 0.03436 0.88907 0.11712 1.1407 0.20129 0.26842 0.10049 0.5066 0.22159 0.72469 0.32208l1.0736 0.40261c0.25165 0.06699 0.52 0.08053 0.80522 0.08053 1.5601 0 3.0195-0.93941 3.6904-2.4156 0.21816-0.50327 0.5536-1.5064 0.30195-2.8316l45.442 0.03367v-50.76l-34.551-33.886h-90.887z"/>
    <path fill="#fff" d="m157.19 36.804-32.1-31.487h-87.55l-32.108 31.436v87.382l27.628 28.182 17.815 0.0172c-1.9963 1.7949-2.6169 3.6569-2.9357 4.5628-0.68775 1.9962-1.4091 2.5665 4.8479 1.6943 1.9795-0.28515 5.5862-1.5601 7.2803-2.7008 1.6607-1.1407 4.9484-0.21816 4.6633 2.2479-1.5433 3.7743-5.502 6.1397-9.2768 6.6095-8.6893 1.0904-4.9317 4.3279-4.9317 4.3279 0.95619 0.65426 1.644 1.2917 2.1305 1.8621h-4.2273v-0.0172h-42.978l-0.017178 40.478 32.091 31.537h87.567l32.09-31.487v-83.539l-27.628-28.148h-22.327c-1.7781-1.1911-4.177-2.5163-6.3578-3.9421 0-0.01718 0-0.01718-0.0172-0.01718-0.83874-0.48647-1.6607-1.0903-2.4491-1.7781-0.65421-0.52001-1.2413-1.0736-1.7446-1.6272-1.9291-2.013-3.3717-4.1099-3.7576-5.0829-0.72133-1.7781-0.55355-4.026 1.0736-3.1034 4.1267 2.3821 10.904 2.835 13.42 2.9189 0.28515 0 2.3149 0.2349 2.8014 0.38564 0.50322 0.20141 1.2749 0.57034 1.2749 0.57034 1.0233 0.43614 2.8685-0.97294 0.73812-3.5731-0.55359-0.88907-1.3923-1.9124-2.3821-2.9524h47.354v-44.756"/>
    <path d="m48.988 11.889l-37.05 36.297v104.79l31.537 32.17h29.607c5.053-2.22 6.123-2.03 7.527-4.86 0.21-0.45 0.418-1.75 0.44-3.02 0.063-0.36 0.693-4.18-1.153-3.25-3.166 1.59-9.562-2.61-14.343-0.11-4.781 2.47-1.279-3.27-0.608-4.26 0 0 2.558-3.37 6.416-5.6 0.147-0.08 0.273-0.16 0.377-0.25 0.378-0.21 0.756-0.39 1.155-0.58 2.935-1.37 11.3-6.94 12.81-8.68 0.902-1.01 2.496-3.32 2.559-4.6 0.272-1.11 0.483-2.87-0.586-3.56-1.594-1.05-2.874 1-5.369 2.12-2.496 1.11-4.383 1.57-6.606 1.65-2.138 0.07-4.193-0.75-5.472-0.56-1.28 0.21-2.035-0.76 0.314-3.13 1.069-1.07 1.532-1.55 2.035-1.91 5.578-3.58 10.589-3.62 13.399-9.98 0 0 2.181-5.7-2.034-3.27-2.306 1.34-3.564 3.27-10.17 3.27-6.584 0-9.164 3.13-10.275 4.49 0 0-4.486 6.27-3.375-2.52 1.133-8.76 2.83-13.23 6.961-16.65 3.564-2.93 12.412-6.87 15.6-11.21 1.635-1.62 5.746-6.32 3.355-10.299-1.007-1.678-3.459 2.669-5.996 3.229-2.894 0.76-6.563 1.7-9.373 1.13-3.481-0.69-5.704 0.63-7.004 1.22s-3.754-1.28-0.756-4.698c4.026-4.592 13.757-10.588 20.299-14.174 0.902-0.378 3.102-1.342 5.115-2.621 0.042-0.022 0.084-0.043 0.106-0.043 0.503-0.231 1.237-0.672 1.656-1.238 1.426-1.196 2.412-2.536 2.076-3.899-0.293-1.237-0.903-1.657-2.832-1.867-1.53-0.147-4.066 1.636-6.205 1.469-3.271-0.273-8.074 0.481-6.48-1.846 1.488-2.16 3.899-3.545 4.591-3.922 1.342-0.608 3.146-1.404 5.809-2.6 4.173-1.887 3.585-6.625 1.971-6.792-2.517-0.273-9.31 1.906-4.53-3.545 0 0 2.266-2.285 4.551-3.774 1.803-1.048 3.292-1.447 5.074-2.098 1.112-0.398 4.028-2.977-2.892-3.25 0 0-3.859 0.105-3.125-1.677 0.608-1.174 4.006-3.313 4.006-3.313s2.724-1.867 3.836-2.978c1.069-1.028 1.824-1.845 1.761-2.768-0.042-1.048-2.768-2.348-3.922-3.816-0.817-1.049-0.125-1.425 0.336-1.551 0.252-0.041 0.546-0.084 0.903-0.084 2.809 0.021 3.606-2.789 5.246-10.086 0.48-2.181 0.52-2.641 1.23-2.662 0.07 0 0.11 0.021 0.15 0.021 0 0 0.69 3.69 1.7 7.821 0.86 2.285 1.8 3.25 3.46 3.228 0.33 0 0.63 0.041 0.88 0.084 0.46 0.126 1.17 0.505 0.33 1.553-0.63 0.818-2.51 2.139-2.66 2.936-0.54 2.264 1.62 3.082 3.82 3.25 3.12 0.209 1.82 2.159-1.55 4.654-3.25 2.411 5.07 7.57 5.07 7.57 4.74 3.67 1.36 4.612 0.4 5.137-0.97 0.503-3.63 2.139-0.97 3.187 2.69 1.028 6.38 4.739 6.38 4.739 4.76 5.451-2.02 3.293-4.53 3.545-1.62 0.167-2.2 4.926 1.97 6.793 6.35 2.872 7.76 3.355 10 5.033 4.19 3.103 1.97 5.745-3.27 4.822 0 0-3.35-0.838-5.7-0.377-1.47 0.273-2.48 0.608-3.17 0.965-0.36 0.545-1.19 2.704 6.1 4.947 3.48 1.09 7.8 3.713 11.64 6.711l59.81-0.062-0.01-48.457-37.05-36.338h-105.3zm90.312 118.05c1.72 2.85 2.72 6.58 3.46 12.06 0.02 3.29-4.32 1.69-5.73 0.83-0.98-0.67-2.28-1.29-3.96-1.69-3.17-0.76-10.71-4.07-12.77-4.81-2.1-0.77-3.63 0.78-3.88 1.37h0.02c-0.54 1 0.57 3.02 0.57 3.02 2.96 6.71 8.41 6.35 14.4 10.65 8.24 5.87 3.84 7.11 2.14 6.23-1.67-0.9-4.44-0.34-4.44-0.34-6.65 1.83-8.64-0.94-12.54-1.97-3.88-1.05-0.69 3.78 0.71 5.39 1.49 1.74 9.88 7.32 12.79 8.68 6.36 2.96 9.67 7.76 11.64 13.86 1.87 5.77-0.17 4.51-1.68 3.8-1.51-0.72-1.95-2.27-5.7-2.18-3.77 0.08-5.89-0.19-8.58-2.31-0.71-0.55-1.28-1.18-1.76-1.7-0.04-0.02-0.06-0.04-0.08-0.06-2.58-1.97-2.08 4.57-1.55 5.64 1.86 3.75 3.12 2.22 13.86 7.95 5.09 2.72 6.29 6.37 6.83 7.9 0.86 2.48 1.74 3.19-6.06 2.1-2.49-0.34-6.98-1.93-9.12-3.38-2.05-1.42-6.18-0.27-5.81 2.81 1.93 4.72 6.88 7.68 11.6 8.26 4.13 0.53 6 1.43 6.75 2.35 2.26 2.58-1.93 6.36-1.93 6.36-2.1 2.43 0.17 5.28 1.72 6.12 2.52 1.28 7.4 4.21 9.02 8.41 8.47 21.8 0.27 15.55-3.74 13.06-4.02-2.5-11.68-8.91-18.66-8.35-6.98 0.55-9.31 0.93-13.46-2.37-4.13-3.29-3.73 2.04-3.73 2.04v26.29c0.25 5.89 1.34 11.51 6.02 16.27 3.83 3.93 6.75 3.19 12.16 9.8 2.49 3.04 10.63 6.31 16.06 6.37l10.42 0.02 37.05-36.34v-100.04l-31.51-32.1h-20.53zm-127.34 88.97l-0.021 43.09 37.05 36.36h11.91c11.198-0.55 15.391-9.23 18.788-14.57 2.558-4.05 7.088-7.49 9.961-10.43 3.04-3.08 3.586-10.13 3.669-17.76v-15.93l0.022 0.16v-3.81h0.021v-2.54h0.002v-0.59-6.87c0-1.6-1.845-1.72-5.871 2.64-4.047 4.34-10.819 3.98-14.74 4.34-3.921 0.35-15.202 6.23-18.432 10.44-1.992 2.62-4.823 0.46-3.67-4.7h-0.042c0.545-2.32 1.551-5.45 3.166-9.58 2.222-5.76 10.568-9.14 10.568-9.14s0.86-0.38 1.615-1.11h-53.996z" transform="matrix(.80001 0 0 .80001 -.00065308 0)" fill="#007932"/>
  </svg>
  <svg x="44" y="0" width="376" height="48" viewBox="0 0 640.00061 134.11456" preserveAspectRatio="xMidYMid meet">
    <g fill="#8c1515" transform="translate(-40,-40)">
      
  <path d="m389.92 53.927c5.1878-8.9838 15.636-13.72 25.758-13.81 9.2368-0.59651 19.685 0.93995 26.156 8.2427-3.2898 4.3382-6.4351 8.7669-9.7249 13.105-3.6694-4.2117-6.6881-10.141-12.617-11.334-5.8386-1.8076-13.177 1.2292-14.696 7.4835-2.4583 9.9237-0.97611 20.299-1.3376 30.422h18.962v11.298h-18.98c0 17.028 0 34.055-0.0181 51.083-0.0723 4.8263 0.70496 9.5984 1.6088 14.334 4.3382 2.0064 9.0199 3.0368 13.81 3.1272-0.0181 1.1749-0.0362 3.5429-0.0542 4.7359-15.509-1.0123-31.037-1.3196-46.528-0.0181 0-0.99418 0.0361-2.9825 0.0361-3.9767 4.8986-0.86765 10.972-3.1452 11.171-9.038 1.898-20.01 0.61459-40.165 0.99418-60.247-3.7779 0-7.5558 0-11.334-0.01808 0.0181-1.6991 0.0542-3.4164 0.0723-5.1155 3.8321-1.7715 7.5739-3.7417 11.261-5.7663 0-11.605-0.68689-24.15 5.459-34.507z"/>
  <path d="m669.5 40.099c-10.032 2.3137-20.19 4.2653-30.494 4.7172-0.10846 0.93995-0.30804 2.8194-0.39844 3.7594 3.8321 1.1569 10.087 0.85106 10.358 6.2016 1.5365 10.846 0.45207 21.852 0.75937 32.77-14.768-2.5306-31.272-2.3679-43.834 6.8328-13.756 9.6345-18.474 27.603-17.1 43.619 0.77726 12.418 6.9949 25.162 18.256 31.217 13.412 7.375 30.567 5.8567 43.13-2.6391 0.0904 2.5126 0.1444 5.0249 0.1625 7.5375 9.7249-2.4764 19.668-3.8684 29.664-4.4469v-4.3391c-14.167-2.4126-10.25-8.969-11.244-20.117 0.0181-35.031-0.5247-70.081 0.74063-105.11zm-36.752 56.492c5.982-0.06335 12.066 1.8478 16.977 5.1828 0.0181 18.853-0.0365 37.706 0.0359 56.559-10.52 4.8263-24.746 4.4827-32.989-4.4469-7.0677-7.5558-8.2608-18.618-7.6281-28.488 0.70498-8.9838 2.5863-19.251 10.431-24.819 3.9304-2.6967 8.5208-3.9398 13.173-3.9891z"/>
  <path d="m73.206 51.613c11.912-0.72304 23.86 0.05423 35.646 1.7172-0.70497 8.3873-0.63266 16.829 0.0181 25.216-1.1388 0-3.4164 0.01808-4.5552 0.01808-0.9038-5.242-1.8438-11.605-7.4293-13.937-8.2788-3.4887-17.968-3.8321-26.554-1.3376-11.225 3.326-13.069 19.847-4.7178 27.06 10.448 9.1465 23.246 15.13 33.947 24.005 16.756 13.34 14.569 44.395-5.3144 53.74-16.738 7.7365-36.387 5.7843-53.668 0.92188 0.108-8.31-0.199-16.62-0.579-24.92 1.2472-0.0181 3.7598-0.0723 5.0251-0.0904 0.88573 5.224 1.6991 11.641 6.9954 14.334 9.4718 5.3144 21.691 5.7482 31.525 1.1749 12.274-6.7785 10.014-26.373-1.4642-32.971-9.96-7.67-21.402-13.34-30.603-22-10.195-9.472-11.46-26.066-4.898-37.906 5.368-9.436 16.196-14.153 26.626-15.021z"/>
  <path d="m143.9 69.382c0.93996 0.05423 2.8379 0.14461 3.7779 0.19884-0.0181 6.3085-0.0181 12.599-0.0181 18.908h28.922v10.846h-28.922c0.10845 15.184-0.23499 30.386 0.16268 45.588 0.39768 5.7843 0.56036 12.997 5.9651 16.54 6.8147 4.049 14.967 1.5184 21.782-1.1388 2.0968 5.1336-3.2356 8.0077-6.9412 10.141-8.6946 4.2117-19.305 4.6636-28.289 1.1569-7.6823-2.8741-11.388-11.279-11.786-18.98-0.92187-17.751 0-35.537 0.14461-53.306h-11.298c-0.0181-1.193-0.0361-2.368-0.0542-3.5429 12.274-4.6275 20.552-15.202 26.554-26.409z"/>
  <path d="m221.3 85.621c-13.032-0.13393-26.175 6.3391-30.362 19.425 1.1388 0.65074 3.4525 1.9336 4.6094 2.5844 5.007-8.8392 16.702-13.376 25.92-8.2781 7.2304 3.2898 7.8462 12.128 7.7016 19.052-11.37 3.6514-23.138 6.526-33.875 11.877-12.87 6.7966-14.533 26.065-5.3141 36.495 10.864 9.9599 28.994 8.3504 39.731-1.0672 3.2718 6.4712 11.008 8.948 17.75 7.05 5.8747-1.1388 9.7607-6.0372 13.611-10.177-0.66883-0.75919-2.0234-2.2962-2.6922-3.0734-2.4222 0.61459-5.1524 2.5306-7.5203 0.66875-3.0729-2.1149-2.694-6.3626-2.9109-9.6344 0.21696-14.027 0.99424-28.089 0.25312-42.134-0.36152-7.2666-3.6149-14.697-10.05-18.511-5.0274-2.7905-10.928-4.2157-16.852-4.2766zm7.6688 43.737c0.0723 9.4538 0.0008 18.907 0.0734 28.361-6.0555 2.6933-13.25 5.1879-19.631 2.0969-7.8088-4.1575-7.4828-16.593-1.0297-21.817 6.2001-4.2659 13.556-6.2727 20.588-8.6406z"/>
  <path d="m470.43 85.976c-9.5261 0.10846-19.36 2.4765-26.808 8.6766-11.081 8.9657-15.888 23.788-15.4 37.706-0.0542 11.912 3.6513 24.62 13.033 32.538 11.081 9.6526 27.186 10.61 40.978 7.7359 14.551-3.1995 25.487-15.943 28.578-30.223 3.326-14.822 1.9339-32.048-8.2609-44.014-7.845-9.1826-20.407-12.654-32.12-12.419zm0.12657 10.117c5.1193 0.09956 10.185 2.202 13.466 6.2781 5.947 7.2846 7.538 17.082 7.9719 26.228 0.0723 9.9599-1.1932 20.714-7.4656 28.848-6.1639 7.9715-19.449 8.8574-26.553 1.6812-5.4409-5.0432-7.4661-12.544-8.6953-19.594-1.2834-9.3634-0.95733-19.107 1.9891-28.127 2.0607-6.0374 6.0732-12.147 12.436-14.208 2.1861-0.78518 4.5246-1.1531 6.8516-1.1078z"/>
  <path d="m267.87 91.724c10.105-0.16268 20.354-1.2111 29.681-5.3867 0.32537 2.4041 0.57843 4.8082 0.77727 7.2485 10.719-7.0135 24.565-9.743 36.839-5.4047 8.785 2.9464 14.931 11.551 15.708 20.661 1.8076 17.335-0.81342 34.905 1.5003 52.204 0.25307 5.4409 6.1097 6.6701 10.358 7.5558 0.0181 1.0123 0.0181 3.0368 0.0361 4.049-14.352-1.1388-43.093-0.0542-43.093-0.0542l-0.0543-4.0987s10.367-2.9148 11.026-5.8974c2.368-12.87 1.8076-26.174 1.6811-39.243-0.46997-7.8088-0.27114-17.57-7.7365-22.324-8.0077-4.6094-17.823-2.4764-26.011 0.50613 0.0542 16.919 0 33.856 0 50.776 0.23499 4.519-0.0904 9.6707 2.856 13.43 2.4764 1.7172 5.5855 2.0245 8.4234 2.8199 0.0181 1.0123 0.0361 3.0548 0.0361 4.0852-14.154-0.92188-28.343-1.5184-42.479-0.0181 0-1.0123 0.0362-3.0187 0.0362-4.0129 4.3021-0.99418 9.978-2.3499 10.791-7.5558 1.9703-12.472 0.4519-25.216 0.92187-37.797-0.18076-7.1762 0.61459-14.443-0.65073-21.529-0.99419-4.8444-6.905-4.5732-10.629-5.5313 0-1.1207-0.0181-3.3621-0.0181-4.4829z"/>
  <path d="m520.46 91.344c10.123-0.14461 20.245-1.5184 29.862-4.754l0.27114 7.4473c9.7249-7.8269 24.385-9.8153 34.742-2.0607l-10.8 16.484c-5.0432-7.7727-15.274-9.6526-23.354-5.694 0 0-0.0542 34.218 0.0542 51.318 0.41574 3.814-0.18076 8.7669 3.3983 11.261 3.4525 2.0245 7.6462 1.9161 11.496 2.5306 0 1.1749-0.0181 3.561-0.0181 4.7359-15.527-1.0484-31.091-1.2653-46.618-0.0362l-0.003-4.6996c5.0052-0.85351 10.216-2.585 10.975-5.5676 2.151-7.3569 1.1026-15.148 1.3196-22.722-0.21692-12.057 0.43382-24.132-0.28922-36.17-0.0542-5.8566-6.6881-6.3808-10.99-7.2304 0.007-1.6601-0.0291-3.3648-0.0358-4.8443z"/>
 
    </g>
  </svg>
</svg>
